#!OML:ASF F:\VICON\USERDATA\INSTALL\rory3\rory3.ASF
:FULLY-SPECIFIED
:DEGREES
55
root -0.2111868695370116 18.728698238610967 22.467254608892794 4.698911581668316 6.0633782601811905 -3.748691868973559
lfemur -41.85829879102219 -3.187076557842218 -18.49909240496062
ltibia 43.29937076067617
lfoot 1.3908895139887911 -13.38322543026852
ltoes -19.218779493331805
rfemur 17.66992947943899 5.507180281093386 35.22120217334738
rtibia 28.629720156737516
rfoot 30.9692362662495 -0.48128057402155644
rtoes 7.468144614773785
lowerback 10.944945506453752 2.2516455248542497 6.431193066127847
upperback -2.0574675973873253 3.9539024806649397 0.24473577723531337
thorax -8.284780216125807 1.6320508437196577 -4.0753175334197405
lowerneck -18.318233723118368 -6.888965221311814 -2.284693577283121
upperneck 16.716170203174 -9.572832398825177 3.833426223214637
head 8.579698483631404 -4.319649664661247 0.5204677345445436
lclavicle -1.030152758903533e-15 -8.636205722972594e-16
lhumerus -76.0326572191853 -0.8698561136492657 93.5287562264361
lradius 119.32041585206116
lwrist 41.90795749220595
lhand -22.80730404613632 2.6007756656678023
lfingers 7.125020000000057
lthumb 3.62824433555748 32.46582345126432
rclavicle -1.030152758903533e-15 -8.636205722972594e-16
rhumerus -35.08372564168506 17.50882677533925 -97.63778601073172
rradius 122.58965418744067
rwrist -22.106017288658766
rhand -13.531561372076649 12.878940215396412
rfingers 7.125020000000057
rthumb 12.565204400304687 39.62951766620179
56
root -0.20723775431287222 18.77324289928154 23.270660963568698 4.693312751006263 5.755914800449441 -3.821724206236233
lfemur -39.773376514082535 -2.7119502480088196 -18.717695557354208
ltibia 35.251006562249025
lfoot 3.3646182733298686 -14.407072104786025
ltoes -18.65333995970149
rfemur 17.49641758706767 6.774002012630756 35.69170632136735
rtibia 31.140560692850617
rfoot 30.625051674634104 -1.485379079441227
rtoes 9.254758320015007
lowerback 10.478236145393538 2.4390350162229057 6.290364796194965
upperback -2.044452309917643 4.15643459663691 0.15663442850434284
thorax -8.001442768745477 1.7397564334140236 -4.122555809642269
lowerneck -18.390657901696763 -6.966354858496871 -2.29503165062333
upperneck 16.967220694120257 -9.706672508384703 3.884067233383839
head 8.688797747366127 -4.369709278615696 0.5188209934262721
lclavicle -1.1180705130848748e-15 -9.316956192807755e-16
lhumerus -77.00991817373222 1.0195537723533246 92.45205301927467
lradius 119.23934408955475
lwrist 41.86513796523437
lhand -22.34429771500371 1.8486325416155847
lfingers 7.125020000000056
lthumb 4.075151211859486 31.69512144638194
rclavicle -1.1180705130848748e-15 -9.316956192807755e-16
rhumerus -35.17421075244041 18.197873757850385 -97.86159238863215
rradius 121.17334025466246
rwrist -22.207281431769385
rhand -13.65816604685665 5.322387315499011
rfingers 7.125020000000056
rthumb 12.44370400465898 39.91704501751805
57
root -0.20291216603721313 18.76650117232371 24.147916500777946 4.491570381945515 5.411839576302171 -3.9979644187255445
lfemur -37.804026776723056 -2.1131587591254704 -18.9088235256641
ltibia 29.1343773293475
lfoot 4.913605089647964 -14.841326693616907
ltoes -17.61802638145226
rfemur 16.75824601899557 7.733635776945686 36.18182693865481
rtibia 36.350594108482014
rfoot 28.674183660773952 -3.076072357165584
rtoes 10.20129627973092
lowerback 10.437297355284526 2.6089179515414203 6.175456768823759
upperback -1.955567985068158 4.359735607086555 0.1591861430542223
thorax -7.852113239138791 1.8479264931006694 -4.083322422883541
lowerneck -18.55731397509071 -7.018698302676712 -2.2949451486060015
upperneck 16.895547533875853 -9.79528416438049 3.9670293002013355
head 8.704647146120251 -4.3988289327750945 0.5320622510565163
lclavicle -1.092451657360963e-15 -9.118588555233276e-16
lhumerus -77.59381133759507 2.358324523053855 91.84453877022847
lradius 119.44715940342002
lwrist 41.605247362288466
lhand -21.659883662482496 1.060480175109804
lfingers 7.125020000000056
lthumb 4.735760460320618 30.878166975529147
rclavicle -1.092451657360963e-15 -9.118588555233276e-16
rhumerus -35.23346146796551 18.86650890824977 -98.12500721590817
rradius 120.0524689560709
rwrist -21.920897438358566
rhand -15.188054302248824 -1.218066626802873
rfingers 7.125020000000056
rthumb 10.971882704385582 35.94840115521127
58
root -0.20880733899578446 18.713728282849132 24.70366192167741 4.066699497409813 5.102503843006936 -4.2083607236801015
lfemur -36.03404779204615 -1.5406385006127303 -19.30359026457332
ltibia 23.974410798212435
lfoot 5.6697855058998226 -14.914959011863903
ltoes -16.731688862220626
rfemur 15.287558047734917 8.20472851725433 36.311922955867075
rtibia 43.46482174413364
rfoot 26.208445564133054 -5.027155470630574
rtoes 10.407987408675352
lowerback 10.697888360358554 2.711519852389412 5.975732735315773
upperback -1.8180467686451105 4.475814309115571 0.1832978253289581
thorax -7.844768266306842 1.9170846986635848 -4.007404068290749
lowerneck -18.76616367443975 -7.034495140074016 -2.311393640363735
upperneck 16.5344206120144 -9.825044097814297 4.061293422089658
head 8.6293710301203 -4.400397460936636 0.5620257355477202
lclavicle -1.2868224593609144e-15 -1.0623606247189169e-15
lhumerus -77.92530991813761 2.8135614722624025 91.73163472185455
lradius 119.36664373615281
lwrist 40.79079497077491
lhand -21.171602132157087 0.43959848085525444
lfingers 7.125020000000056
lthumb 5.207069204174891 30.2361613665391
rclavicle -1.2868224593609144e-15 -1.0623606247189169e-15
rhumerus -35.60195465408024 19.062878885741117 -98.60331311148995
rradius 118.4016453213522
rwrist -21.473252593341613
rhand -17.359097780266495 -5.723199072510685
rfingers 7.125020000000056
rthumb 8.88256839990543 29.41398461526156
